<?xml version="1.0" encoding="utf-8"?>
<!-- Generator: Adobe Illustrator 24.1.0, SVG Export Plug-In . SVG Version: 6.00 Build 0)  -->
<svg version="1.1" id="Livello_1" xmlns="http://www.w3.org/2000/svg" xmlns:xlink="http://www.w3.org/1999/xlink" x="0px" y="0px"
	 viewBox="0 0 975.6 343" style="enable-background:new 0 0 975.6 343;" xml:space="preserve">
<style type="text/css">
	.st0{fill:none;}
	.st1{enable-background:new    ;}
</style>
<desc>Created with Sketch.</desc>
<rect x="-5.4" y="20.3" class="st0" width="980" height="302.5"/>
<g class="st1">
	<path d="M75.9,172.7c-45.5,0-73.5-32.3-73.5-73.2s29.2-73.2,77-73.2c22.1,0,39.9,5.6,49.2,9.2l4,27.5l-1.5,0.6
		c-10.2-23-25.5-33.4-53.4-33.4C35,30.2,15,60.8,15,99.7c0,38.8,17.1,69.1,60.9,69.1c28.4,0,49-10.4,49-30.5
		c0-19.8-2.1-26.1-8.8-31.9v-0.4h26.1v0.4c-6.3,6.3-7.7,11.7-7.7,26.7v19.2C125,158.7,107.2,172.7,75.9,172.7z"/>
	<path d="M163.2,147V99.5c0-7.5-4-11.5-8.4-14.4v-0.4l17.3-10V98l1,0.2c9.2-9.2,17.3-22.5,31.1-22.5v15.4h-0.4
		c-2.9-1.7-9.4-2.9-14-2.9c-3.1,0-10.8,7.3-16.9,14.4v44.2c0,10.2,0.2,15.9,4.2,22.7v0.4h-18v-0.4
		C162.6,162.7,163.2,157.1,163.2,147z"/>
	<path d="M255,172.7c-24.8,0-41.3-18.8-41.3-47c0-30.1,19.8-49.9,42.8-49.9c21.9,0,35.5,17.9,34,36.9h-65.7
		c-0.4,2.7-0.6,5.6-0.6,8.8c0,24.6,11.3,42.4,34.2,42.4c12.1,0,25-4.8,31.7-15.7l1,0.4C286.3,163.1,272.8,172.7,255,172.7z
		 M225.2,109.7l53.2-1.2v-1.2c0-19.4-7.9-28.2-22.5-28.2C239.8,79.2,228.5,90.3,225.2,109.7z"/>
	<path d="M312.2,151.6V82.1h-10.4v-0.4l19.6-17.1h0.4v14h28.4v3.5h-28.4V152c0,9.8,4.2,14.8,14,14.8c6.9,0,13.2-2.5,16.1-4l0.4,0.8
		c-2.7,2.7-10,9.2-20.9,9.2C322.4,172.7,312.2,168.1,312.2,151.6z"/>
	<path d="M415.5,159.1c-6.7,7.1-17.9,13.6-30.3,13.6c-13.6,0-22.5-7.3-22.5-19.6c0-22.5,30.9-32.3,52.8-34.4v-17.7
		c0-10.2-4.8-19.6-21.7-19.6c-10.6,0-20.2,3.8-26.9,8.4l-1-1.3c7.7-7.7,19.4-12.9,33.4-12.9c21.3,0,25.7,11.1,25.7,23.4v58
		c0,5.2,2.3,8.3,7.5,8.3c4.4,0,7.1-2.5,9.2-4.6l0.6,0.4c-1.5,4-5.4,10.9-14.6,10.9C419.5,172.1,415.7,166.6,415.5,159.1z
		 M415.5,155.8v-34c-20.7,2.5-43,10.9-43,28.6c0,9,5.2,15.4,17.3,15.4C400.3,165.8,410.1,161.2,415.5,155.8z"/>
</g>
<g class="st1">
	<path d="M114.2,182.7h19.2L85.8,319.6l-23,0.2L15.5,182.7h19.2l39.4,118.8h0.4L114.2,182.7z"/>
</g>
<g class="st1">
	<path d="M216.8,306.4c0,5.6,0.6,10,1.5,13.4H201c-0.6-3.5-0.8-10.8-0.8-22.1h-0.2c-3.1,15.9-15.7,24.4-34.8,24.4
		c-30.3,0-36.1-15.9-36.1-28.6c0-12.5,6.5-21.3,16.5-25.2c5.2-1.9,10-3.3,14.8-4.2c4.8-1,9.8-1.7,15.2-2.3c5.6-0.6,9.2-1.2,10.9-1.7
		c11.3-3.3,12.9-5.8,12.9-13.2c0-9.2-8.4-14.4-23.2-14.4c-10,0-16.7,2.9-19.6,7.7c-2.5,4.6-2.7,6-3.3,9.6h-17.3
		c0.8-6.3,1.9-10.9,3.6-14.2c6-11.5,18-17.3,36.1-17.3c14.4,0,25.3,4.2,30.7,9c2.9,2.5,5,5.4,6.5,9c3.3,6.9,3.6,11.3,3.6,16.9V306.4
		z M199.5,257.8c-1.7,8.6-9.2,11.9-27.5,15.6c-17.7,3.3-25,7.5-25,19.8c0,9.2,7.7,15.6,20.2,15.6c21.3,0,32.3-9.8,32.3-34.9V257.8z"
		/>
	<path d="M294.5,236.5c-24-3.8-39,10.2-39,39.2v44.2h-17.3v-99.3h16.3v24.8h0.4c5.6-20,20.9-28.2,39.6-25.2V236.5z"/>
	<path d="M399.2,275.3h-78.5c1.7,21.7,12.7,32.4,32.8,32.4c14,0,24.2-6.5,27.1-19.4h16.9c-4.4,21.7-20.9,33.8-44,33.8
		c-31.5,0-49.2-20.7-50.1-52.2c0-14.8,4.8-27.1,14.2-36.9s21.3-14.8,35.3-14.8C388.8,218.2,400.3,251.1,399.2,275.3z M381.7,260.7
		c-1-16.1-12.5-28.2-28.8-28.2c-16.1,0-28.6,11.3-31.7,28.2H381.7z"/>
	<path d="M426.6,290.6c1,11.7,9.6,17.5,25.5,17.5c6.9,0,12.9-1.2,18-3.5s7.9-6.1,7.9-11.7c0-5.2-2.9-9-6-11.3
		c-1.3-1.2-3.6-2.3-6.7-3.3c-3.1-1-5.6-1.7-7.7-2.1c-1.9-0.6-4.8-1.2-8.8-1.9c-9-1.7-12.5-2.5-20-5.4c-10-4.2-15-10-15.7-22.5
		c0-9.2,3.6-16.1,11.1-20.9c7.5-4.8,16.1-7.3,25.9-7.3c12.5,0,21.9,2.1,28.4,6.1c6.7,4,10.8,11.7,12.3,23.2H475
		c-2.9-12.3-10.8-15.4-23.6-15.4c-11.3,0-20.9,4-20.9,13.2c0,6.3,4,9.8,10.8,12.1l6.3,1.9l7.7,1.5c3.5,0.6,6,1.2,7.7,1.5
		c9.4,2.1,15.4,4.2,22.1,8.3c6.9,4,10.4,10.9,10.4,20c0,7.5-2.3,13.6-7.1,18.6c-9.2,9.8-22.1,12.7-36.9,12.7
		c-11.5,0-21.1-2.3-28.8-7.1c-7.7-4.8-11.9-13.1-12.7-24.4H426.6z"/>
	<path d="M596,306.4c0,5.6,0.6,10,1.5,13.4h-17.3c-0.6-3.5-0.8-10.8-0.8-22.1h-0.2c-3.1,15.9-15.7,24.4-34.8,24.4
		c-30.3,0-36.1-15.9-36.1-28.6c0-12.5,6.5-21.3,16.5-25.2c5.2-1.9,10-3.3,14.8-4.2c4.8-1,9.8-1.7,15.2-2.3c5.6-0.6,9.2-1.2,10.9-1.7
		c11.3-3.3,12.9-5.8,12.9-13.2c0-9.2-8.4-14.4-23.2-14.4c-10,0-16.7,2.9-19.6,7.7c-2.5,4.6-2.7,6-3.3,9.6h-17.3
		c0.8-6.3,1.9-10.9,3.6-14.2c6-11.5,18-17.3,36.1-17.3c14.4,0,25.3,4.2,30.7,9c2.9,2.5,5,5.4,6.5,9c3.3,6.9,3.6,11.3,3.6,16.9V306.4
		z M578.7,257.8c-1.7,8.6-9.2,11.9-27.5,15.6c-17.7,3.3-25,7.5-25,19.8c0,9.2,7.7,15.6,20.2,15.6c21.3,0,32.3-9.8,32.3-34.9V257.8z"
		/>
	<path d="M704.3,254.5v65.3H687v-63.6c0-17.5-8.3-23.6-22.8-23.6c-19.4,0-29.4,9.8-29.4,34.6v52.6h-17.3v-99.3h16.3v21.5h0.4
		c4.6-15.9,16.9-23.8,32.3-23.8C691.6,218.2,704.3,232.3,704.3,254.5z"/>
	<path d="M733.1,233c8.6-9.8,20.7-14.8,35.9-14.8c15.2,0,27.3,5,35.9,14.8c8.6,9.8,13.1,22.1,13.1,37.2c0,15-4.4,27.5-13.1,37.2
		c-8.6,9.8-20.7,14.6-35.9,14.6c-15.2,0-27.3-4.8-35.9-14.6c-8.6-9.8-13.1-22.3-13.1-37.2C720,255.1,724.4,242.8,733.1,233z
		 M791.4,242.6c-6-6.7-13.4-10.2-22.5-10.2c-9,0-16.5,3.5-22.7,10.2c-6,6.7-9,15.9-9,27.6c0,11.5,3.1,20.7,9,27.5
		c6.1,6.7,13.6,10,22.7,10c9,0,16.5-3.3,22.5-10c6.1-6.7,9.2-15.9,9.2-27.5C800.6,258.6,797.6,249.4,791.4,242.6z"/>
</g>
<polygon class="st0" points="-9.2,184.5 -16,184.5 -16,184.5 "/>
</svg>
