<?xml version="1.0" encoding="utf-8"?>
<!-- Generator: Adobe Illustrator 24.1.0, SVG Export Plug-In . SVG Version: 6.00 Build 0)  -->
<svg version="1.1" id="Livello_1" xmlns="http://www.w3.org/2000/svg" xmlns:xlink="http://www.w3.org/1999/xlink" x="0px" y="0px"
	 viewBox="0 0 117 148" style="enable-background:new 0 0 117 148;" xml:space="preserve">
<style type="text/css">
	.st0{fill-rule:evenodd;clip-rule:evenodd;fill:#DCDCDC;}
</style>
<desc>Created with Sketch.</desc>
<g id="Page-1">
	<g id="Group-6">
		<path id="Rectangle" class="st0" d="M89.5,0h22c2.8,0,5,2.2,5,5v138c0,2.8-2.2,5-5,5h-22c-2.8,0-5-2.2-5-5V5
			C84.5,2.2,86.7,0,89.5,0z"/>
		<path id="Rectangle-Copy-7" class="st0" d="M5.5,0h22c2.8,0,5,2.2,5,5v138c0,2.8-2.2,5-5,5h-22c-2.8,0-5-2.2-5-5V5
			C0.5,2.2,2.7,0,5.5,0z"/>
	</g>
</g>
</svg>
